<?xml version="1.0" encoding="UTF-8" standalone="no"?>
<!DOCTYPE svg PUBLIC "-//W3C//DTD SVG 1.1//EN" "http://www.w3.org/Graphics/SVG/1.1/DTD/svg11.dtd">
<svg version="1.1" xmlns="http://www.w3.org/2000/svg" xmlns:xlink="http://www.w3.org/1999/xlink" preserveAspectRatio="xMidYMid meet" viewBox="0 0 17 17" width="15" height="15"><defs><path d="M4.4 15.99C2.4 15.53 2.56 13.64 2.58 13.32C2.59 13.01 3.23 11.28 5.3 8.82C7.37 6.35 10.26 7.97 10.9 8.8C11.54 9.63 13.59 12.3 13.7 13.52C13.81 14.74 13.24 15.28 12.89 15.6C12.54 15.93 11.69 16.18 10.99 16.17C10.28 16.16 9.7 15.75 9.49 15.72C9.27 15.68 9.09 15.39 7.51 15.51C5.93 15.63 6.4 16.45 4.4 15.99Z" id="fO8iEK2GB"></path><path d="M3.87 6.18C4.75 7.2 4.89 8.53 4.17 9.16C3.45 9.78 2.15 9.46 1.26 8.44C0.38 7.42 0.24 6.09 0.96 5.47C1.68 4.84 2.98 5.16 3.87 6.18Z" id="bwnVcjalJ"></path><path d="M8.7 3.62C8.9 5.3 8.13 6.78 6.98 6.92C5.83 7.06 4.72 5.81 4.52 4.13C4.31 2.45 5.08 0.98 6.23 0.84C7.39 0.69 8.49 1.94 8.7 3.62Z" id="eoEkWyhAj"></path><path d="M13.25 6.01C12.58 7.34 11.34 8.07 10.49 7.64C9.64 7.2 9.5 5.77 10.18 4.44C10.86 3.11 12.1 2.38 12.94 2.82C13.79 3.25 13.93 4.68 13.25 6.01Z" id="cimL1aNom"></path><path d="M15.52 10.52C14.57 11.23 13.33 11.2 12.76 10.44C12.18 9.68 12.49 8.48 13.45 7.76C14.4 7.04 15.64 7.08 16.21 7.84C16.78 8.6 16.48 9.8 15.52 10.52Z" id="a9shuWnml"></path></defs><g><g><g><use xlink:href="#fO8iEK2GB" opacity="1" fill="inherit" fill-opacity="1"></use></g><g><use xlink:href="#bwnVcjalJ" opacity="1" fill="inherit" fill-opacity="1"></use></g><g><use xlink:href="#eoEkWyhAj" opacity="1" fill="inherit" fill-opacity="1"></use></g><g><use xlink:href="#cimL1aNom" opacity="1" fill="inherit" fill-opacity="1"></use></g><g><use xlink:href="#a9shuWnml" opacity="1" fill="inherit" fill-opacity="1"></use></g></g></g></svg>